<svg width="188" height="188" viewBox="0 0 188 188" fill="none" xmlns="http://www.w3.org/2000/svg">
<path fill-rule="evenodd" clip-rule="evenodd" d="M41.8889 69.8154L60.2667 81.1841L54.8833 84.6549L56.9159 87.807L63.7994 83.3705L92.6534 101.221C92.9609 101.413 93.3097 101.505 93.6585 101.501C94.0072 101.497 94.3541 101.398 94.6579 101.203L123.176 82.8173L130.14 87.1263L132.115 83.9368L126.668 80.5672L144.83 68.8572C145.37 68.5085 145.694 67.9065 145.689 67.2634C145.683 66.6202 145.347 66.0258 144.8 65.6864L94.0335 34.2804C93.4184 33.8998 92.6384 33.9073 92.0309 34.2992L41.8589 66.6446C41.3188 66.9934 40.9944 67.5953 41.0001 68.2384C41.0057 68.8816 41.3413 69.476 41.8889 69.8154ZM93.0678 38.0925L140.302 67.3121L93.621 97.4075L46.3872 68.1878L93.0678 38.0925ZM94.5697 91.8271L100.18 88.21L98.1474 85.058L93.5328 88.0338L88.7569 85.0786L86.7824 88.2681L92.5652 91.8458C92.8727 92.0371 93.2215 92.129 93.5703 92.1252C93.9191 92.1215 94.2659 92.0221 94.5697 91.8271ZM98.1156 50.5376L93.1559 47.468L88.2469 50.6313L86.2143 47.4793L92.119 43.6728C92.7265 43.2809 93.5066 43.2734 94.1216 43.6541L100.09 47.348L98.1156 50.5376ZM42.1328 96.0666L50.1057 100.998L52.0802 97.8085L46.6312 94.439L52.0165 90.9682L49.9839 87.8161L42.1047 92.8939C41.5647 93.2427 41.2403 93.8446 41.2459 94.4877C41.2515 95.1309 41.5872 95.7272 42.1328 96.0666ZM68.855 112.594L70.829 109.404L84.2203 117.688L82.2463 120.879L68.855 112.594ZM86.8987 119.348L84.9261 122.539L92.899 127.471C93.2065 127.662 93.5553 127.754 93.9041 127.75C94.2528 127.746 94.5997 127.647 94.9035 127.452L102.783 122.372L100.75 119.22L93.8666 123.659L86.8987 119.348ZM103.395 117.515L116.631 108.983L118.663 112.137L105.428 120.669L103.395 117.515ZM145.046 91.9342L137.073 87.0027L135.098 90.1922L140.547 93.5617L135.162 97.0326L137.195 100.185L145.074 95.105C145.614 94.7562 145.938 94.1543 145.933 93.5111C145.929 92.8698 145.593 92.2736 145.046 91.9342ZM126.913 106.817L145.291 118.186C145.837 118.525 146.174 119.119 146.18 119.762C146.186 120.406 145.861 121.008 145.321 121.356L95.1491 153.702C94.8454 153.897 94.4985 153.996 94.1497 154C93.8009 154.004 93.4522 153.912 93.1447 153.72L42.3782 122.316C41.8307 121.977 41.4951 121.383 41.4894 120.739C41.4838 120.096 41.8082 119.494 42.3482 119.146L60.5123 107.434L52.785 102.654L54.7595 99.4645L68.1515 107.749L66.177 110.938L64.045 109.62L46.8766 120.689L94.1141 149.908L140.795 119.813L123.424 109.067L121.314 110.426L119.282 107.274L132.518 98.7426L134.551 101.895L126.913 106.817Z" fill="#24F2AD"/>
</svg>
