<svg width="140" height="68" viewBox="0 0 140 68" fill="none" xmlns="http://www.w3.org/2000/svg">
<path fill-rule="evenodd" clip-rule="evenodd" d="M78.4636 0C77.263 0 76.2335 0.858867 76.0196 2.04231L59.2929 64.4802L59.2672 64.6C59.2245 64.7922 59.2032 64.9675 59.2032 65.1469C59.2032 66.5184 60.3227 67.6335 61.6939 67.6335C62.7363 67.6335 63.6807 66.9756 64.0351 65.9929L64.1377 65.7025H64.121L80.8734 3.14918C80.9248 2.94411 80.9546 2.7177 80.9546 2.49539C80.9544 1.11508 79.8393 0 78.4636 0ZM40.3534 13.3941C40.3534 12.0225 39.2383 10.9033 37.8668 10.9033C37.4011 10.9033 36.9653 11.0316 36.5551 11.2793L1.24742 31.6633C0.47004 32.1161 0 32.9194 0 33.8166C0 34.7053 0.478516 35.5256 1.24742 35.9655L36.5209 56.341C38.213 57.3708 40.3534 56.0846 40.3534 54.2389C40.3534 53.4185 39.9646 52.6751 39.2895 52.2009L38.9433 51.9573L38.9305 51.9871L7.47689 33.8166L39.2898 15.4323C39.9561 14.9707 40.3534 14.2059 40.3534 13.3941ZM103.484 11.2968L138.753 31.6635C139.522 32.1079 140 32.9326 140 33.8169C140 34.7012 139.522 35.5259 138.757 35.9702L103.449 56.3627C101.89 57.3197 99.651 56.0848 99.651 54.2391C99.651 53.4188 100.04 52.6753 100.715 52.2012L101.052 51.9619L101.074 51.9876L132.528 33.8169L101.074 15.6546L100.715 15.4325C100.048 14.9713 99.651 14.2064 99.651 13.3946C99.651 11.5533 101.749 10.2416 103.484 11.2968Z" fill="#24F2AD"/>
</svg>
