<svg width="106" height="120" viewBox="0 0 106 120" fill="none" xmlns="http://www.w3.org/2000/svg">
<path fill-rule="evenodd" clip-rule="evenodd" d="M0.888869 35.8154L19.2667 47.1841L13.8833 50.6549L15.9159 53.807L22.7994 49.3705L51.6534 67.2214C51.9609 67.4127 52.3097 67.5046 52.6585 67.5008C53.0072 67.4971 53.3541 67.3977 53.6579 67.2027L82.1763 48.8173L89.1404 53.1263L91.1149 49.9368L85.6677 46.5672L103.83 34.8572C104.37 34.5085 104.694 33.9065 104.689 33.2634C104.683 32.6202 104.347 32.0258 103.8 31.6864L53.0335 0.280411C52.4184 -0.100234 51.6384 -0.0927337 51.0309 0.299162L0.858867 32.6446C0.318839 32.9934 -0.00555331 33.5953 7.19852e-05 34.2384C0.00569728 34.8816 0.34134 35.476 0.888869 35.8154ZM52.0678 4.09249L99.3015 33.3121L52.621 63.4075L5.38723 34.1878L52.0678 4.09249ZM53.5697 57.8271L59.18 54.21L57.1474 51.058L52.5328 54.0338L47.7569 51.0786L45.7824 54.2681L51.5652 57.8458C51.8727 58.0371 52.2215 58.129 52.5703 58.1252C52.9191 58.1215 53.2659 58.0221 53.5697 57.8271ZM57.1156 16.5376L52.1559 13.468L47.2469 16.6313L45.2143 13.4793L51.119 9.67282C51.7265 9.28093 52.5066 9.27343 53.1216 9.65407L59.09 13.348L57.1156 16.5376ZM1.13283 62.0666L9.10574 66.9981L11.0802 63.8085L5.63119 60.439L11.0165 56.9682L8.98386 53.8161L1.1047 58.8939C0.564671 59.2427 0.240279 59.8446 0.245904 60.4877C0.251529 61.1309 0.587172 61.7272 1.13283 62.0666ZM27.855 78.5944L29.829 75.4036L43.2203 83.6881L41.2463 86.8789L27.855 78.5944ZM45.8987 85.3479L43.9261 88.5393L51.899 93.4708C52.2065 93.6621 52.5553 93.7539 52.9041 93.7502C53.2528 93.7465 53.5997 93.6471 53.9035 93.4521L61.7827 88.3724L59.7501 85.2204L52.8666 89.6587L45.8987 85.3479ZM62.3951 83.5151L75.6305 74.9834L77.6634 78.137L64.428 86.6687L62.3951 83.5151ZM104.046 57.9342L96.0727 53.0027L94.0983 56.1922L99.5473 59.5617L94.162 63.0326L96.1946 66.1846L104.074 61.105C104.614 60.7562 104.938 60.1543 104.933 59.5111C104.929 58.8698 104.593 58.2736 104.046 57.9342ZM85.9133 72.8168L104.291 84.1855C104.837 84.5249 105.174 85.1193 105.18 85.7625C105.186 86.4056 104.861 87.0075 104.321 87.3563L54.1491 119.702C53.8454 119.897 53.4985 119.996 53.1497 120C52.8009 120.004 52.4522 119.912 52.1447 119.72L1.37824 88.3164C0.830715 87.977 0.495072 87.3826 0.489447 86.7394C0.483822 86.0962 0.808213 85.4943 1.34824 85.1456L19.5123 73.4337L11.785 68.6541L13.7595 65.4645L27.1515 73.7487L25.177 76.9383L23.045 75.6201L5.8766 86.6888L53.1141 115.908L99.7947 85.8131L82.4237 75.0669L80.3143 76.4264L78.2817 73.2743L91.518 64.7426L93.5506 67.8947L85.9133 72.8168Z" fill="#24F2AD"/>
</svg>
