<svg width="188" height="188" viewBox="0 0 188 188" fill="none" xmlns="http://www.w3.org/2000/svg">
<path fill-rule="evenodd" clip-rule="evenodd" d="M104.833 54C103.427 54 102.221 55.0061 101.97 56.3924L82.3762 129.534L82.3461 129.674C82.2961 129.899 82.2711 130.105 82.2711 130.315C82.2711 131.922 83.5825 133.228 85.1889 133.228C86.4099 133.228 87.5163 132.457 87.9314 131.306L88.0515 130.966H88.032L107.656 57.689C107.716 57.4488 107.751 57.1836 107.751 56.9232C107.751 55.3062 106.445 54 104.833 54ZM59.2712 69.6902C59.2712 68.0835 57.9649 66.7725 56.3582 66.7725C55.8127 66.7725 55.3022 66.9227 54.8217 67.2129L13.4613 91.0913C12.5506 91.6217 12 92.5628 12 93.6137C12 94.6547 12.5605 95.6157 13.4613 96.1311L54.7816 120C56.7637 121.206 59.2712 119.699 59.2712 117.537C59.2712 116.576 58.8157 115.705 58.0248 115.15L57.6193 114.864L57.6042 114.899L20.7586 93.6137L58.0251 72.0778C58.8057 71.5371 59.2712 70.6412 59.2712 69.6902ZM135.241 67.2334L176.556 91.0916C177.457 91.6121 178.017 92.5782 178.017 93.6141C178.017 94.6499 177.457 95.616 176.561 96.1365L135.201 120.025C133.374 121.146 130.751 119.699 130.751 117.537C130.751 116.576 131.207 115.705 131.998 115.15L132.393 114.87L132.418 114.9L169.264 93.6141L132.418 72.3382L131.998 72.0781C131.217 71.5378 130.751 70.6418 130.751 69.6908C130.751 67.5338 133.209 65.9973 135.241 67.2334Z" fill="#24F2AD"/>
</svg>
