<svg width="99" height="120" viewBox="0 0 99 120" fill="none" xmlns="http://www.w3.org/2000/svg">
<path d="M49.2631 0C41.7644 0 35.6694 6.17913 35.6694 13.679C35.6694 20.2413 40.347 25.7064 46.5358 26.9744V41.25H17.6864C17.6012 41.246 17.5159 41.246 17.4307 41.25C17.0725 41.2667 16.7211 41.3538 16.3966 41.5064C16.0721 41.6589 15.7808 41.8739 15.5393 42.139C15.2979 42.4042 15.111 42.7142 14.9895 43.0516C14.8679 43.3889 14.8139 43.7469 14.8307 44.1051C14.8475 44.4633 14.9347 44.8147 15.0873 45.1392C15.2399 45.4637 15.455 45.755 15.7201 45.9964C15.9853 46.2377 16.2955 46.4245 16.6328 46.546C16.9702 46.6675 17.3282 46.7214 17.6864 46.7045H46.5358V114.46C37.215 114.024 29.6704 111.367 23.9506 106.875C18.0954 102.277 14.0606 95.6835 12.0614 87.1449L14.9591 88.7216C15.5974 89.0679 16.3468 89.1474 17.0434 88.9426C17.7401 88.7378 18.3273 88.2654 18.6766 87.6288C19.0259 86.9922 19.1088 86.2431 18.9073 85.5455C18.7058 84.8479 18.2361 84.2585 17.6012 83.9062L9.2489 79.3892C8.76972 79.1192 8.22011 79.0004 7.67219 79.0483C7.25605 79.0903 6.85514 79.2274 6.50047 79.4491C6.14579 79.6708 5.84684 79.9711 5.62674 80.3267L0.59833 88.4659C0.357264 88.767 0.1828 89.1158 0.0864564 89.4893C-0.0098874 89.8628 -0.0259205 90.2525 0.0394147 90.6326C0.10475 91.0127 0.249968 91.3747 0.465483 91.6946C0.680999 92.0145 0.961909 92.285 1.28967 92.4883C1.61744 92.6917 1.9846 92.8232 2.36693 92.8742C2.74926 92.9252 3.13805 92.8945 3.50765 92.7842C3.87726 92.6739 4.21925 92.4864 4.51108 92.2342C4.8029 91.982 5.03792 91.6707 5.2006 91.321L6.77731 88.7642C9.05352 98.1705 13.7651 105.824 20.5841 111.179C27.966 116.976 37.7223 120 49.2631 120C60.8039 120 70.5602 116.976 77.9421 111.179C84.7611 105.824 89.4727 98.1705 91.7489 88.7642L93.3256 91.321C93.4883 91.6707 93.7233 91.982 94.0151 92.2342C94.307 92.4864 94.6489 92.6739 95.0185 92.7842C95.3881 92.8945 95.7769 92.9252 96.1593 92.8742C96.5416 92.8232 96.9088 92.6917 97.2365 92.4883C97.5643 92.285 97.8452 92.0145 98.0607 91.6946C98.2762 91.3747 98.4215 91.0127 98.4868 90.6326C98.5521 90.2525 98.5361 89.8628 98.4398 89.4893C98.3434 89.1158 98.1689 88.767 97.9279 88.4659L92.8995 80.3267C92.6333 79.8979 92.2533 79.5514 91.8019 79.3257C91.3505 79.1 90.8454 79.004 90.3426 79.0483C89.9678 79.0871 89.6051 79.2032 89.2773 79.3892L80.925 83.9062C80.2901 84.2585 79.8204 84.8479 79.6189 85.5455C79.4174 86.2431 79.5003 86.9922 79.8496 87.6288C80.1989 88.2654 80.7861 88.7378 81.4828 88.9426C82.1794 89.1474 82.9288 89.0679 83.5671 88.7216L86.4648 87.1449C84.4656 95.6835 80.4308 102.277 74.5756 106.875C68.8558 111.367 61.3112 114.024 51.9904 114.46V46.7045H80.8398C81.2012 46.7097 81.56 46.6429 81.8954 46.5081C82.2307 46.3734 82.536 46.1733 82.7933 45.9195C83.0507 45.6658 83.2551 45.3634 83.3946 45.03C83.5341 44.6965 83.6059 44.3387 83.6059 43.9773C83.6059 43.6158 83.5341 43.258 83.3946 42.9246C83.2551 42.5912 83.0507 42.2888 82.7933 42.035C82.536 41.7813 82.2307 41.5812 81.8954 41.4464C81.56 41.3117 81.2012 41.2449 80.8398 41.25H51.9904V26.9744C58.1792 25.7064 62.8568 20.2413 62.8568 13.679C62.8568 6.17913 56.7618 0 49.2631 0ZM49.2631 5.45455C53.8142 5.45455 57.4875 9.1272 57.4875 13.679C57.4875 18.2308 53.8142 21.8182 49.2631 21.8182C44.712 21.8182 41.0387 18.2308 41.0387 13.679C41.0387 9.1272 44.712 5.45455 49.2631 5.45455Z" fill="#24F2AD"/>
</svg>
