<svg width="188" height="188" viewBox="0 0 188 188" fill="none" xmlns="http://www.w3.org/2000/svg">
<path d="M94.2631 34C86.7644 34 80.6694 40.1791 80.6694 47.679C80.6694 54.2413 85.347 59.7064 91.5358 60.9744V75.25H62.6864C62.6012 75.246 62.5159 75.246 62.4307 75.25C62.0725 75.2667 61.7211 75.3538 61.3966 75.5064C61.0721 75.6589 60.7808 75.8739 60.5393 76.139C60.2979 76.4042 60.111 76.7142 59.9895 77.0516C59.8679 77.3889 59.8139 77.7469 59.8307 78.1051C59.8475 78.4633 59.9347 78.8147 60.0873 79.1392C60.2399 79.4637 60.455 79.755 60.7201 79.9964C60.9853 80.2377 61.2955 80.4245 61.6328 80.546C61.9702 80.6675 62.3282 80.7214 62.6864 80.7045H91.5358V148.46C82.215 148.024 74.6704 145.367 68.9506 140.875C63.0954 136.277 59.0606 129.683 57.0614 121.145L59.9591 122.722C60.5974 123.068 61.3468 123.147 62.0434 122.943C62.7401 122.738 63.3273 122.265 63.6766 121.629C64.0259 120.992 64.1088 120.243 63.9073 119.546C63.7058 118.848 63.2361 118.259 62.6012 117.906L54.2489 113.389C53.7697 113.119 53.2201 113 52.6722 113.048C52.2561 113.09 51.8551 113.227 51.5005 113.449C51.1458 113.671 50.8468 113.971 50.6267 114.327L45.5983 122.466C45.3573 122.767 45.1828 123.116 45.0865 123.489C44.9901 123.863 44.9741 124.252 45.0394 124.633C45.1047 125.013 45.25 125.375 45.4655 125.695C45.681 126.014 45.9619 126.285 46.2897 126.488C46.6174 126.692 46.9846 126.823 47.3669 126.874C47.7493 126.925 48.1381 126.895 48.5077 126.784C48.8773 126.674 49.2193 126.486 49.5111 126.234C49.8029 125.982 50.0379 125.671 50.2006 125.321L51.7773 122.764C54.0535 132.171 58.7651 139.824 65.5841 145.179C72.966 150.976 82.7223 154 94.2631 154C105.804 154 115.56 150.976 122.942 145.179C129.761 139.824 134.473 132.171 136.749 122.764L138.326 125.321C138.488 125.671 138.723 125.982 139.015 126.234C139.307 126.486 139.649 126.674 140.019 126.784C140.388 126.895 140.777 126.925 141.159 126.874C141.542 126.823 141.909 126.692 142.237 126.488C142.564 126.285 142.845 126.014 143.061 125.695C143.276 125.375 143.421 125.013 143.487 124.633C143.552 124.252 143.536 123.863 143.44 123.489C143.343 123.116 143.169 122.767 142.928 122.466L137.899 114.327C137.633 113.898 137.253 113.551 136.802 113.326C136.351 113.1 135.845 113.004 135.343 113.048C134.968 113.087 134.605 113.203 134.277 113.389L125.925 117.906C125.29 118.259 124.82 118.848 124.619 119.546C124.417 120.243 124.5 120.992 124.85 121.629C125.199 122.265 125.786 122.738 126.483 122.943C127.179 123.147 127.929 123.068 128.567 122.722L131.465 121.145C129.466 129.683 125.431 136.277 119.576 140.875C113.856 145.367 106.311 148.024 96.9904 148.46V80.7045H125.84C126.201 80.7097 126.56 80.6429 126.895 80.5081C127.231 80.3734 127.536 80.1733 127.793 79.9195C128.051 79.6658 128.255 79.3634 128.395 79.03C128.534 78.6965 128.606 78.3387 128.606 77.9773C128.606 77.6158 128.534 77.258 128.395 76.9246C128.255 76.5912 128.051 76.2888 127.793 76.035C127.536 75.7813 127.231 75.5812 126.895 75.4464C126.56 75.3117 126.201 75.2449 125.84 75.25H96.9904V60.9744C103.179 59.7064 107.857 54.2413 107.857 47.679C107.857 40.1791 101.762 34 94.2631 34ZM94.2631 39.4545C98.8142 39.4545 102.488 43.1272 102.488 47.679C102.488 52.2308 98.8142 55.8182 94.2631 55.8182C89.712 55.8182 86.0387 52.2308 86.0387 47.679C86.0387 43.1272 89.712 39.4545 94.2631 39.4545Z" fill="#24F2AD"/>
</svg>
