<svg width="24" height="24" viewBox="0 0 24 24" fill="none" xmlns="http://www.w3.org/2000/svg">
<path fill-rule="evenodd" clip-rule="evenodd" d="M12 0C5.37321 0 0 5.37321 0 12C0 18.6268 5.37321 24 12 24C18.6268 24 24 18.6268 24 12C24 5.37321 18.6268 0 12 0ZM17.8018 16.0446C17.8821 16.1249 17.925 16.2321 17.925 16.3446C17.925 16.4571 17.8821 16.5696 17.8018 16.6446L16.6446 17.8071C16.5589 17.8928 16.4518 17.9303 16.3446 17.9303C16.2375 17.9303 16.125 17.8874 16.0446 17.8071L12 13.7571L7.96069 17.8124C7.88034 17.8981 7.76784 17.9356 7.66069 17.9356C7.55355 17.9356 7.44105 17.8928 7.36069 17.8124L6.20355 16.6499C6.12319 16.5696 6.08034 16.4624 6.08034 16.3499C6.08034 16.2374 6.12319 16.1249 6.20355 16.0499L10.2589 11.9785L6.19284 7.96063C6.02677 7.79455 6.02677 7.52134 6.19284 7.35527L7.34998 6.19277C7.43034 6.11241 7.53748 6.06955 7.64998 6.06955C7.76248 6.06955 7.86962 6.11241 7.94998 6.19277L12.0053 10.1946L16.0607 6.19277C16.1411 6.11241 16.2482 6.06955 16.3607 6.06955C16.4732 6.06955 16.5803 6.11241 16.6607 6.19277L17.8178 7.35527C17.9839 7.52134 17.9839 7.79455 17.8178 7.96063L13.7518 11.9785L17.8018 16.0446Z" fill="white"/>
<mask id="mask0" mask-type="alpha" maskUnits="userSpaceOnUse" x="0" y="0" width="24" height="24">
<path fill-rule="evenodd" clip-rule="evenodd" d="M12 0C5.37321 0 0 5.37321 0 12C0 18.6268 5.37321 24 12 24C18.6268 24 24 18.6268 24 12C24 5.37321 18.6268 0 12 0ZM17.8018 16.0446C17.8821 16.1249 17.925 16.2321 17.925 16.3446C17.925 16.4571 17.8821 16.5696 17.8018 16.6446L16.6446 17.8071C16.5589 17.8928 16.4518 17.9303 16.3446 17.9303C16.2375 17.9303 16.125 17.8874 16.0446 17.8071L12 13.7571L7.96069 17.8124C7.88034 17.8981 7.76784 17.9356 7.66069 17.9356C7.55355 17.9356 7.44105 17.8928 7.36069 17.8124L6.20355 16.6499C6.12319 16.5696 6.08034 16.4624 6.08034 16.3499C6.08034 16.2374 6.12319 16.1249 6.20355 16.0499L10.2589 11.9785L6.19284 7.96063C6.02677 7.79455 6.02677 7.52134 6.19284 7.35527L7.34998 6.19277C7.43034 6.11241 7.53748 6.06955 7.64998 6.06955C7.76248 6.06955 7.86962 6.11241 7.94998 6.19277L12.0053 10.1946L16.0607 6.19277C16.1411 6.11241 16.2482 6.06955 16.3607 6.06955C16.4732 6.06955 16.5803 6.11241 16.6607 6.19277L17.8178 7.35527C17.9839 7.52134 17.9839 7.79455 17.8178 7.96063L13.7518 11.9785L17.8018 16.0446Z" fill="white"/>
</mask>
<g mask="url(#mask0)">
<rect width="24" height="24" fill="white"/>
</g>
</svg>
