<svg width="292" height="104" viewBox="0 0 292 104" fill="none" xmlns="http://www.w3.org/2000/svg">
<path d="M0.257894 44V38.78L4.75789 37.28V8.78L0.257894 6.98V2L14.0579 1.7H19.7579C25.8379 1.7 30.5379 3.46 33.8579 6.98C37.1779 10.5 38.8379 15.6 38.8379 22.28C38.8379 29 37.0379 34.3 33.4379 38.18C29.8379 42.06 24.9779 44 18.8579 44H0.257894ZM14.0579 8.78V36.98H19.0379C22.1579 36.98 24.5579 35.88 26.2379 33.68C27.9179 31.44 28.7579 27.74 28.7579 22.58C28.7579 17.7 27.9579 14.18 26.3579 12.02C24.7979 9.86 22.4979 8.78 19.4579 8.78H14.0579ZM71.266 38.78V44H52.966V38.78L57.466 37.28V8.78L52.966 6.98V2L71.266 1.7V6.98L66.766 8.78V37.28L71.266 38.78ZM102.586 38.78V44H85.486V38.78L89.986 37.28V8.78L85.486 6.98V2L100.966 1.7L109.966 21.68L119.386 2L133.786 1.7V6.98L129.466 8.78V37.28L133.966 38.78V44H116.086V38.78L120.766 37.28V14.54C120.046 16.42 119.206 18.38 118.246 20.42C117.326 22.42 116.266 24.62 115.066 27.02C113.906 29.38 113.006 31.24 112.366 32.6L105.886 32.9L98.986 18.68L97.966 15.56V37.28L102.586 38.78ZM173.683 1.7L186.583 37.4L190.783 38.78V44H171.703V38.78L176.203 37.4L174.763 32.9H161.443L159.943 37.34L164.623 38.78V44H146.503V38.78L150.883 37.4L164.083 1.88L173.683 1.7ZM168.283 12.26L163.543 26.48H172.783L168.283 12.26ZM210.052 30.98L210.952 36.02C212.552 36.86 214.512 37.28 216.832 37.28C218.872 37.28 220.592 36.86 221.992 36.02C223.392 35.14 224.092 33.94 224.092 32.42C224.092 31.34 223.592 30.4 222.592 29.6C221.592 28.8 220.332 28.18 218.812 27.74C217.332 27.3 215.712 26.72 213.952 26C212.192 25.24 210.552 24.44 209.032 23.6C207.552 22.72 206.312 21.44 205.312 19.76C204.312 18.04 203.812 16.02 203.812 13.7C203.812 9.66 205.212 6.54 208.012 4.34C210.852 2.1 214.532 0.98 219.052 0.98C221.052 0.98 223.152 1.18 225.352 1.58C227.552 1.98 229.252 2.38 230.452 2.78L232.252 3.38L231.952 14.3H226.432L224.932 9.2C223.132 8.6 221.372 8.3 219.652 8.3C217.612 8.3 216.032 8.7 214.912 9.5C213.832 10.3 213.292 11.32 213.292 12.56C213.292 13.64 213.792 14.58 214.792 15.38C215.792 16.18 217.032 16.82 218.512 17.3C220.032 17.74 221.652 18.32 223.372 19.04C225.132 19.76 226.752 20.54 228.232 21.38C229.752 22.22 231.012 23.46 232.012 25.1C233.012 26.74 233.512 28.66 233.512 30.86C233.512 35.22 231.992 38.64 228.952 41.12C225.952 43.56 222.072 44.78 217.312 44.78C215.312 44.78 213.192 44.58 210.952 44.18C208.712 43.82 206.972 43.44 205.732 43.04L203.932 42.5V30.98H210.052ZM266.963 38.78V44H248.543V38.78L253.043 37.28V8.78L248.543 6.98V2L266.963 1.7V6.98L262.343 8.78V18.68H278.063V8.78L273.443 6.98V2L291.863 1.7V6.98L287.363 8.78V37.28L291.863 38.78V44H273.443V38.78L278.063 37.28V25.7H262.343V37.28L266.963 38.78ZM89.3516 104V98.78L94.2716 97.28V68.78H88.5716L87.0716 74.48H81.5516V61.88L116.352 61.7V74.48H110.772L109.272 68.78H103.572V97.28L108.552 98.78V104H89.3516ZM143.928 68.78V78.8H156.048V85.4H143.928V96.98H154.548L155.928 92H161.448V104H130.128V98.78L134.628 97.28V68.78L130.128 66.98V62L143.928 61.7H160.728V73.28H155.148L153.648 68.78H143.928ZM202.245 61.7L215.145 97.4L219.345 98.78V104H200.265V98.78L204.765 97.4L203.325 92.9H190.005L188.505 97.34L193.185 98.78V104H175.065V98.78L179.445 97.4L192.645 61.88L202.245 61.7ZM196.845 72.26L192.105 86.48H201.345L196.845 72.26Z" fill="white"/>
</svg>
