<svg width="100" height="100" viewBox="0 0 100 100" fill="none" xmlns="http://www.w3.org/2000/svg">
<g clip-path="url(#clip0)">
<path d="M99.8072 54.6193C98.9094 45.5883 94.8747 37.0743 88.4461 30.6455C82.9523 25.1518 76.228 21.6215 69.1525 20.0517V15.0892C72.0423 14.3702 74.1904 11.7544 74.1904 8.64512C74.1904 4.98335 71.2115 2.00439 67.5497 2.00439H53.487C49.8252 2.00439 46.8462 4.98335 46.8462 8.64512C46.8462 11.7542 48.9943 14.37 51.884 15.0892V20.0656C44.8302 21.642 38.1281 25.1675 32.6499 30.6457C31.4511 31.8445 30.3456 33.1021 29.3337 34.4092C29.2846 34.4055 29.2356 34.4018 29.1856 34.4018H15.2672C14.1887 34.4018 13.3141 35.2762 13.3141 36.3549C13.3141 37.4337 14.1887 38.3081 15.2672 38.3081H26.676C25.2439 40.7056 24.0892 43.2234 23.2103 45.8152H1.95316C0.874623 45.8152 0 46.6897 0 47.7684C0 48.8471 0.874623 49.7215 1.95316 49.7215H22.1066C21.5437 52.1925 21.2206 54.7072 21.1372 57.2289H12.5002C11.4217 57.2289 10.547 58.1033 10.547 59.182C10.547 60.2608 11.4217 61.1352 12.5002 61.1352H21.1996C21.3644 63.6634 21.7708 66.1782 22.4191 68.6425H9.76578C8.68725 68.6425 7.81262 69.517 7.81262 70.5957C7.81262 71.6744 8.68725 72.5489 9.76578 72.5489H23.6656C25.5816 77.6175 28.576 82.3681 32.6499 86.442C39.0848 92.8769 47.6076 96.9125 56.648 97.8057C57.9382 97.933 59.2294 97.9961 60.5189 97.9961C68.1405 97.9961 75.6652 95.7904 82.0501 91.6325C82.954 91.0439 83.2097 89.8339 82.621 88.93C82.0323 88.026 80.8224 87.7704 79.9184 88.3591C65.9422 97.4602 47.2246 95.4924 35.4121 83.6799C21.5521 69.8199 21.5521 47.2682 35.4121 33.408C49.2719 19.5482 71.8236 19.5482 85.6838 33.408C97.4806 45.2051 99.4592 63.9067 90.3881 77.8761C89.8006 78.7808 90.0579 79.9906 90.9624 80.5779C91.8675 81.1654 93.0769 80.9082 93.6642 80.0035C98.5107 72.5395 100.692 63.5247 99.8072 54.6193ZM50.7526 8.64532C50.7526 7.13748 51.9791 5.9109 53.487 5.9109H67.5497C69.0575 5.9109 70.2841 7.13748 70.2841 8.64532C70.2841 10.1532 69.0575 11.3797 67.5497 11.3797H67.1993H53.8372H53.487C51.9791 11.3797 50.7526 10.153 50.7526 8.64532ZM55.7903 19.3941V15.286H65.2461V19.3871C62.1062 19.0136 58.9296 19.016 55.7903 19.3941Z" fill="#24F2AD"/>
<path d="M87.0657 83.1069C86.55 83.1069 86.0481 83.3159 85.685 83.6792C85.3198 84.0425 85.1125 84.5464 85.1125 85.0601C85.1125 85.5737 85.3198 86.0776 85.685 86.4409C86.0481 86.8062 86.5502 87.0132 87.0657 87.0132C87.5793 87.0132 88.0813 86.8062 88.4465 86.4409C88.8098 86.0776 89.0188 85.5737 89.0188 85.0601C89.0188 84.5464 88.81 84.0425 88.4465 83.6792C88.0813 83.3159 87.5792 83.1069 87.0657 83.1069Z" fill="#24F2AD"/>
<path d="M60.5479 28.2446C43.841 28.2446 30.2488 41.8366 30.2488 58.5437C30.2488 75.2508 43.841 88.8428 60.5479 88.8428C77.2548 88.8428 90.847 75.2508 90.847 58.5437C90.847 41.8366 77.2548 28.2446 60.5479 28.2446ZM60.5479 84.9365C45.9947 84.9365 34.1551 73.0967 34.1551 58.5437C34.1551 43.9908 45.9947 32.1509 60.5479 32.1509C75.101 32.1509 86.9407 43.9908 86.9407 58.5437C86.9407 73.0967 75.101 84.9365 60.5479 84.9365Z" fill="#24F2AD"/>
<path d="M72.9028 43.4265L63.2289 53.1003C62.4199 52.7003 61.5099 52.4743 60.548 52.4743C59.5858 52.4743 58.6761 52.7003 57.8671 53.1003L53.5375 48.7707C52.7746 48.008 51.5383 48.008 50.7752 48.7707C50.0124 49.5335 50.0124 50.7702 50.7752 51.5329L55.1047 55.8625C54.7045 56.6715 54.4787 57.5814 54.4787 58.5434C54.4787 61.8899 57.2012 64.6126 60.548 64.6126C63.8947 64.6126 66.6172 61.8899 66.6172 58.5434C66.6172 57.5814 66.3912 56.6715 65.9912 55.8625L75.3812 46.4725L75.665 46.1887C76.4277 45.426 76.4277 44.1892 75.665 43.4265C74.9023 42.6638 73.6659 42.6638 72.9028 43.4265ZM60.548 60.7065C59.3554 60.7065 58.385 59.7362 58.385 58.5436C58.385 57.351 59.3554 56.3806 60.548 56.3806C61.7406 56.3806 62.7109 57.351 62.7109 58.5436C62.7109 59.7362 61.7406 60.7065 60.548 60.7065Z" fill="#24F2AD"/>
<path d="M81.4309 56.6143H79.6213C78.5428 56.6143 77.6682 57.4887 77.6682 58.5674C77.6682 59.6461 78.5428 60.5205 79.6213 60.5205H81.4309C82.5094 60.5205 83.384 59.6461 83.384 58.5674C83.384 57.4887 82.5094 56.6143 81.4309 56.6143Z" fill="#24F2AD"/>
<path d="M41.4744 56.5669H39.665C38.5865 56.5669 37.7119 57.4413 37.7119 58.52C37.7119 59.5987 38.5865 60.4731 39.665 60.4731H41.4744C42.5529 60.4731 43.4275 59.5987 43.4275 58.52C43.4275 57.4413 42.5529 56.5669 41.4744 56.5669Z" fill="#24F2AD"/>
<path d="M60.5718 41.4227C61.6503 41.4227 62.5249 40.5482 62.5249 39.4695V37.6602C62.5249 36.5814 61.6503 35.707 60.5718 35.707C59.4933 35.707 58.6187 36.5814 58.6187 37.6602V39.4695C58.6187 40.5482 59.4933 41.4227 60.5718 41.4227Z" fill="#24F2AD"/>
<path d="M60.5239 75.6636C59.4454 75.6636 58.5708 76.538 58.5708 77.6167V79.4261C58.5708 80.5048 59.4454 81.3792 60.5239 81.3792C61.6024 81.3792 62.4771 80.5048 62.4771 79.4261V77.6167C62.4771 76.538 61.6024 75.6636 60.5239 75.6636Z" fill="#24F2AD"/>
<path d="M1.95312 68.6416C1.43945 68.6416 0.935547 68.8506 0.572266 69.2139C0.208984 69.5771 0 70.0811 0 70.5947C0 71.1104 0.208789 71.6123 0.572266 71.9756C0.935742 72.3389 1.43945 72.5479 1.95312 72.5479C2.4668 72.5479 2.9707 72.3389 3.33379 71.9756C3.69707 71.6123 3.90625 71.1084 3.90625 70.5947C3.90625 70.0811 3.69727 69.5771 3.33379 69.2139C2.9707 68.8506 2.4668 68.6416 1.95312 68.6416Z" fill="#24F2AD"/>
</g>
<defs>
<clipPath id="clip0">
<rect width="100" height="100" fill="white"/>
</clipPath>
</defs>
</svg>
