<svg width="83" height="83" viewBox="0 0 83 83" fill="none" xmlns="http://www.w3.org/2000/svg">
<g clip-path="url(#clip0)">
<path d="M56.1531 50.3921C54.9869 48.3721 53.1312 46.8369 50.9285 46.0696C48.7256 45.3025 46.3178 45.3528 44.1491 46.2113L38.406 48.4846C37.8643 48.6989 37.2354 48.4801 36.9441 47.9754L33.0141 41.1684L29.0841 34.3613C28.7926 33.8565 28.9173 33.2029 29.3741 32.8407L34.2142 29.0039C36.0422 27.555 37.2896 25.4949 37.7266 23.2036C38.1635 20.9122 37.762 18.5378 36.5956 16.5176L31.1781 7.13438C29.7192 4.60774 27.2322 2.88322 24.3542 2.40322C21.4765 1.9237 18.5642 2.74721 16.3642 4.66383L12.2952 8.20884C6.162 13.5526 4.66232 22.5443 8.72981 29.5891L16.5701 43.169C16.8705 43.6891 17.4151 43.9799 17.9756 43.9797C18.2505 43.9797 18.5293 43.9097 18.7845 43.7623C19.5598 43.3148 19.8255 42.3233 19.3778 41.5479L11.5375 27.968C8.24364 22.2628 9.458 14.9808 14.4252 10.6531L16.7139 8.65918L28.6096 29.3092L27.3601 30.2996C25.6531 31.6528 25.1872 34.0958 26.2762 35.9822L30.2062 42.7894L34.1362 49.5963C35.2253 51.4826 37.5731 52.3008 39.5992 51.499L45.3422 49.2258C48.3091 48.0511 51.7496 49.2494 53.3452 52.0131L58.7626 61.3963C59.7351 63.0809 59.9016 65.0917 59.2194 66.9133C58.6443 68.449 57.5247 69.6877 56.0855 70.4177L49.6833 59.3287C49.2358 58.5534 48.2445 58.2878 47.4689 58.7354C46.6936 59.183 46.4279 60.1745 46.8756 60.9498L52.9941 71.5474L50.1465 72.5244C43.9144 74.6625 37.0015 72.0731 33.7076 66.3679L25.8674 52.7881C25.4198 52.0129 24.4285 51.7472 23.6529 52.1948C22.8776 52.6424 22.6119 53.6338 23.0596 54.4092L30.8999 67.9889C34.0093 73.3745 39.7293 76.5115 45.6894 76.511C47.5258 76.5109 49.3864 76.2129 51.1986 75.5912L53.6232 74.7593L56.4052 78.0944C56.7782 78.5415 56.6271 78.9983 56.5449 79.1738C56.4628 79.3494 56.2087 79.7579 55.6264 79.7579H36.841C34.4528 79.7579 32.2075 78.8279 30.5188 77.139C28.2254 74.8458 24.4941 74.8462 22.2009 77.139C21.1717 78.1684 19.4973 78.1683 18.4685 77.139L18.0093 76.6798C16.8983 75.5689 15.4214 74.9572 13.8505 74.9572C12.2795 74.9572 10.8024 75.569 9.6916 76.6798L9.11076 77.2606C8.08169 78.29 6.40727 78.2897 5.37836 77.2606L2.77115 74.6534C2.13795 74.0205 1.1118 74.0205 0.47844 74.6534C-0.154597 75.2865 -0.154597 76.3129 0.47844 76.9461L3.08565 79.5533C5.37884 81.8464 9.10995 81.8465 11.4035 79.5533L11.9843 78.9725C12.4828 78.474 13.1455 78.1994 13.8507 78.1994C14.5557 78.1994 15.2184 78.474 15.7169 78.9725L16.1761 79.4318C18.4693 81.7248 22.2004 81.725 24.494 79.4318C25.5227 78.4027 27.1971 78.4025 28.2264 79.4318C30.5272 81.7329 33.5867 83.0001 36.841 83.0001H55.6264C57.2963 83.0001 58.7733 82.0607 59.4812 80.5482C60.1892 79.0357 59.9645 77.2997 58.8949 76.0174L56.8907 73.6148C59.3694 72.5831 61.3064 70.5854 62.2557 68.0505C63.2791 65.3184 63.0292 62.302 61.5703 59.7753L56.1531 50.3921ZM19.2402 6.54949C20.5878 5.67799 22.212 5.3327 23.8211 5.60131C25.7396 5.92131 27.3978 7.07099 28.3703 8.75547L33.7879 18.1387C35.3833 20.9022 34.7007 24.4811 32.2002 26.4632L31.1782 27.2732L19.2402 6.54949Z" fill="#24F2AD"/>
<path d="M46.3004 55.6326C46.6019 55.3295 46.7754 54.9128 46.7754 54.4849C46.7754 54.0585 46.6021 53.6403 46.3004 53.3387C45.9987 53.0372 45.5806 52.8638 45.1543 52.8638C44.7279 52.8638 44.3097 53.0372 44.0083 53.3387C43.7068 53.6403 43.5332 54.0585 43.5332 54.4849C43.5332 54.9128 43.7067 55.3295 44.0083 55.6326C44.3097 55.9341 44.7279 56.106 45.1543 56.106C45.5806 56.106 45.9989 55.9341 46.3004 55.6326Z" fill="#24F2AD"/>
<path d="M73.3184 46.1506C72.6854 45.5175 71.6592 45.5175 71.0257 46.1506C70.3926 46.7836 70.3926 47.8101 71.0257 48.4431C73.9878 51.4053 73.9878 56.2253 71.0257 59.1876C70.3926 59.8206 70.3926 60.8471 71.0257 61.4801C71.3423 61.7967 71.7571 61.9549 72.172 61.9549C72.5868 61.9549 73.0016 61.7965 73.3182 61.4801C77.5446 57.2538 77.5446 50.3769 73.3184 46.1506Z" fill="#24F2AD"/>
<path d="M77.9226 41.5466C77.2898 40.9135 76.2636 40.9135 75.6299 41.5466C74.9969 42.1796 74.9969 43.2061 75.6299 43.8391C81.1311 49.3403 81.1311 58.2912 75.6299 63.7922C74.9969 64.4252 74.9969 65.4517 75.6299 66.0847C75.9465 66.4013 76.3614 66.5595 76.7762 66.5595C77.191 66.5595 77.6059 66.4012 77.9225 66.0847C84.6878 59.3196 84.6878 48.3117 77.9226 41.5466Z" fill="#24F2AD"/>
<path d="M65.8606 52.1943C65.4325 52.1943 65.016 52.3678 64.7145 52.6693C64.413 52.9708 64.2395 53.3891 64.2395 53.8154C64.2395 54.2418 64.4128 54.66 64.7145 54.9615C65.016 55.2631 65.4342 55.4365 65.8606 55.4365C66.2869 55.4365 66.7052 55.2631 67.0065 54.9615C67.3081 54.66 67.4817 54.2418 67.4817 53.8154C67.4817 53.3891 67.3082 52.9708 67.0065 52.6693C66.7052 52.3678 66.2869 52.1943 65.8606 52.1943Z" fill="#24F2AD"/>
<path d="M51.9897 20.4087C52.3063 20.7253 52.7211 20.8835 53.1359 20.8835C53.5508 20.8835 53.9656 20.7251 54.2822 20.4087C54.9152 19.7756 54.9152 18.7491 54.2822 18.1161C52.8471 16.6811 52.0568 14.7732 52.0568 12.744C52.0568 10.7147 52.8471 8.80665 54.2822 7.37182C54.9152 6.73878 54.9152 5.71231 54.2822 5.07927C53.6492 4.44623 52.623 4.44623 51.9895 5.07927C49.9422 7.12655 48.8146 9.84869 48.8146 12.7441C48.8146 15.6396 49.9424 18.3612 51.9897 20.4087Z" fill="#24F2AD"/>
<path d="M48.5317 25.4878C48.9465 25.4878 49.3614 25.3294 49.678 25.013C50.311 24.3799 50.311 23.3534 49.678 22.7204C44.1768 17.2192 44.1768 8.26835 49.678 2.76733C50.311 2.13429 50.311 1.10781 49.678 0.474778C49.0448 -0.158259 48.0186 -0.158259 47.3853 0.474778C40.6203 7.23993 40.6203 18.2478 47.3853 25.013C47.702 25.3295 48.1167 25.4878 48.5317 25.4878Z" fill="#24F2AD"/>
<path d="M59.4475 14.3643C59.8739 14.3643 60.2921 14.1908 60.5936 13.8893C60.8951 13.5878 61.0686 13.1711 61.0686 12.7432C61.0686 12.3168 60.8953 11.8986 60.5936 11.5971C60.2921 11.2955 59.8739 11.1221 59.4475 11.1221C59.0212 11.1221 58.6029 11.2955 58.3016 11.5971C58 11.8986 57.8264 12.3168 57.8264 12.7432C57.8264 13.1711 57.9999 13.5878 58.3016 13.8893C58.6029 14.1908 59.0212 14.3643 59.4475 14.3643Z" fill="#24F2AD"/>
<path d="M22.365 49.1237C22.6665 48.8221 22.8401 48.4039 22.8401 47.9775C22.8401 47.5512 22.6666 47.133 22.365 46.8314C22.0636 46.5299 21.6453 46.3564 21.219 46.3564C20.7926 46.3564 20.3744 46.5299 20.0729 46.8314C19.7714 47.133 19.5979 47.5512 19.5979 47.9775C19.5979 48.4039 19.7712 48.8221 20.0729 49.1237C20.3744 49.4268 20.7926 49.5986 21.219 49.5986C21.6453 49.5986 22.0634 49.4268 22.365 49.1237Z" fill="#24F2AD"/>
</g>
<defs>
<clipPath id="clip0">
<rect width="83" height="83" fill="white"/>
</clipPath>
</defs>
</svg>
