<svg width="81" height="81" viewBox="0 0 81 81" fill="none" xmlns="http://www.w3.org/2000/svg">
<g clip-path="url(#clip0)">
<path d="M81.0004 14.7159C81.0004 12.5241 80.1469 10.4639 78.5973 8.91411L72.0864 2.40342C70.5367 0.853506 68.4762 0 66.2847 0C64.0931 0 62.0326 0.853506 60.4829 2.40311L55.1261 7.75986C54.4406 7.41672 53.6803 7.234 52.8913 7.234C51.5555 7.234 50.2997 7.75433 49.3552 8.6988C48.4106 9.64343 47.8904 10.8992 47.8904 12.2351C47.8904 13.0241 48.0733 13.7844 48.4164 14.4699L9.71994 53.1661C9.55809 53.3279 9.43311 53.5231 9.35401 53.738L0.0980215 78.8712C-0.115236 79.4502 0.0276211 80.1005 0.463945 80.5366C0.765955 80.8386 1.17048 81.0002 1.58292 81.0002C1.76627 81.0002 1.95121 80.9682 2.12935 80.9025L27.2626 71.6464C27.4774 71.5673 27.6727 71.4425 27.8345 71.2805L34.043 65.072C34.6608 64.4542 34.6608 63.4524 34.043 62.8345C33.4252 62.2167 32.4235 62.2167 31.8056 62.8345L26.7159 67.9244L13.0761 54.2846L50.4723 16.8883L53.0616 19.4777L37.5097 35.0295C36.892 35.6473 36.892 36.649 37.5097 37.267C37.8187 37.5759 38.2235 37.7303 38.6284 37.7303C39.0332 37.7303 39.4382 37.5758 39.747 37.267L55.299 21.7151L64.1121 30.5281L40.755 53.8854C40.1372 54.5032 40.1372 55.5049 40.755 56.1227C41.0639 56.4317 41.4688 56.5861 41.8736 56.5861C42.2785 56.5861 42.6835 56.4317 42.9923 56.1227L66.5313 32.5837C67.2333 32.9341 68.0005 33.1108 68.7685 33.1108C70.0491 33.1108 71.3298 32.6234 72.3048 31.6484C73.8642 30.0888 74.175 27.7477 73.2401 25.8751L78.5973 20.5177C80.1469 18.9679 81.0004 16.9075 81.0004 14.7159ZM11.4687 57.1518L23.8486 69.5319L12.0961 73.8601L7.14059 68.9046L11.4687 57.1518ZM5.93587 72.175L8.82561 75.0647L4.25133 76.7492L5.93587 72.175ZM70.0675 29.4111C69.3513 30.1274 68.1858 30.1273 67.4696 29.4111L51.5925 13.5338C51.2456 13.1869 51.0545 12.7255 51.0545 12.235C51.0545 11.7442 51.2456 11.283 51.5925 10.9361C51.9394 10.5892 52.4006 10.3981 52.8913 10.3981C53.3742 10.3981 53.8281 10.5839 54.1731 10.9206C54.178 10.9257 54.1821 10.9312 54.1872 10.9363C54.1975 10.9465 54.2087 10.9552 54.2193 10.9654L70.0353 26.7813C70.0453 26.7919 70.054 26.8031 70.0643 26.8134C70.0697 26.8188 70.0757 26.8233 70.0811 26.8286C70.7827 27.5459 70.7786 28.6998 70.0675 29.4111ZM76.3598 18.2802L71.1844 23.4557L57.5446 9.81603L62.72 4.64057C63.6721 3.68851 64.938 3.16406 66.2845 3.16406C67.631 3.16406 68.8969 3.68835 69.849 4.64057L76.3598 11.1514C77.3119 12.1035 77.8363 13.3694 77.8363 14.7159C77.8363 16.0624 77.3121 17.3281 76.3598 18.2802Z" fill="#24F2AD"/>
<path d="M37.3992 57.896C36.9815 57.896 36.5749 58.0653 36.2791 58.3595C35.9848 58.6538 35.8171 59.062 35.8171 59.478C35.8171 59.8957 35.9848 60.3023 36.2791 60.5981C36.5734 60.8924 36.9815 61.0601 37.3992 61.0601C37.8152 61.0601 38.2218 60.8924 38.5177 60.5981C38.8119 60.3023 38.9796 59.8957 38.9796 59.478C38.9796 59.062 38.8119 58.6538 38.5177 58.3595C38.2218 58.0653 37.8152 57.896 37.3992 57.896Z" fill="#24F2AD"/>
<path d="M34.1815 39.0127C33.7654 39.0127 33.3573 39.1804 33.063 39.4746C32.7688 39.7705 32.5995 40.1771 32.5995 40.5947C32.5995 41.0108 32.7688 41.419 33.063 41.7132C33.3573 42.0075 33.7654 42.1768 34.1815 42.1768C34.5992 42.1768 35.0058 42.0075 35.3016 41.7132C35.5959 41.4174 35.7635 41.0108 35.7635 40.5947C35.7635 40.1771 35.5959 39.7705 35.3016 39.4746C35.0056 39.1804 34.599 39.0127 34.1815 39.0127Z" fill="#24F2AD"/>
<path d="M57.7338 69.6392C56.86 69.6392 56.1517 70.3474 56.1517 71.2212V73.4061C56.1517 74.2799 56.86 74.9882 57.7338 74.9882C58.6075 74.9882 59.3158 74.2799 59.3158 73.4061V71.2212C59.3158 70.3474 58.6075 69.6392 57.7338 69.6392Z" fill="#24F2AD"/>
<path d="M57.7338 59.168C56.86 59.168 56.1517 59.8762 56.1517 60.75V62.9349C56.1517 63.8087 56.86 64.517 57.7338 64.517C58.6075 64.517 59.3158 63.8087 59.3158 62.9349V60.75C59.3158 59.8762 58.6075 59.168 57.7338 59.168Z" fill="#24F2AD"/>
<path d="M64.062 65.4961H61.8771C61.0033 65.4961 60.295 66.2044 60.295 67.0781C60.295 67.9519 61.0033 68.6602 61.8771 68.6602H64.062C64.9358 68.6602 65.6441 67.9519 65.6441 67.0781C65.6441 66.2044 64.9358 65.4961 64.062 65.4961Z" fill="#24F2AD"/>
<path d="M53.5907 65.4961H51.4056C50.5319 65.4961 49.8236 66.2044 49.8236 67.0781C49.8236 67.9519 50.5319 68.6602 51.4056 68.6602H53.5907C54.4645 68.6602 55.1728 67.9519 55.1728 67.0781C55.1728 66.2044 54.4645 65.4961 53.5907 65.4961Z" fill="#24F2AD"/>
<path d="M16.4531 24.017C17.3269 24.017 18.0352 23.3087 18.0352 22.4349V20.25C18.0352 19.3762 17.3269 18.668 16.4531 18.668C15.5794 18.668 14.8711 19.3762 14.8711 20.25V22.4349C14.8711 23.3087 15.5795 24.017 16.4531 24.017Z" fill="#24F2AD"/>
<path d="M16.4531 13.5459C17.3269 13.5459 18.0352 12.8377 18.0352 11.9639V9.77881C18.0352 8.90505 17.3269 8.19678 16.4531 8.19678C15.5794 8.19678 14.8711 8.90505 14.8711 9.77881V11.9639C14.8711 12.8377 15.5795 13.5459 16.4531 13.5459Z" fill="#24F2AD"/>
<path d="M20.5963 17.689H22.7813C23.655 17.689 24.3633 16.9807 24.3633 16.1069C24.3633 15.2332 23.655 14.5249 22.7813 14.5249H20.5963C19.7226 14.5249 19.0143 15.2332 19.0143 16.1069C19.0143 16.9807 19.7226 17.689 20.5963 17.689Z" fill="#24F2AD"/>
<path d="M10.125 17.689H12.3099C13.1837 17.689 13.892 16.9807 13.892 16.1069C13.892 15.2332 13.1837 14.5249 12.3099 14.5249H10.125C9.25124 14.5249 8.54297 15.2332 8.54297 16.1069C8.54297 16.9807 9.2514 17.689 10.125 17.689Z" fill="#24F2AD"/>
</g>
<defs>
<clipPath id="clip0">
<rect width="81" height="81" fill="white"/>
</clipPath>
</defs>
</svg>
