<svg width="225" height="126" viewBox="0 0 225 126" fill="none" xmlns="http://www.w3.org/2000/svg">
<path d="M8.36509 92.5666C5.57673 90.8445 3.64632 88.4766 2.1449 85.463C0.643469 82.4493 0 79.2204 0 75.5609C0 71.6862 0.857959 68.242 2.35939 65.0131C3.86081 61.7842 6.2202 59.201 8.79407 57.479C11.5824 55.5416 14.5853 54.6805 17.8026 54.6805C20.8055 54.6805 23.5938 55.1111 25.9532 55.9721C28.3126 56.8332 30.0285 57.9095 31.101 59.2011C31.7445 60.0621 32.1734 61.1384 32.3879 62.43C32.6024 63.7215 32.6024 65.6589 32.6024 67.8115H31.53C30.8865 64.1521 29.3851 61.3537 27.4547 59.4163C25.5243 57.6942 22.9504 56.8332 19.733 56.8332C15.6577 56.8332 12.2259 58.34 9.65203 61.1384C7.07816 64.1521 5.79122 68.6726 5.79122 75.1304C5.79122 78.1441 6.2202 80.9425 7.29265 83.5256C8.36509 86.1088 9.86652 88.2614 11.7969 89.9835C13.9418 91.7056 16.5157 92.3514 19.5185 92.3514C22.3069 92.3514 24.6663 91.7056 26.8112 90.414C28.9561 89.1224 30.672 86.9698 32.3879 84.3867L33.4604 85.2477C31.7444 88.6919 29.5996 91.2751 27.0257 92.5666C24.4518 94.0735 21.2345 94.7192 17.8026 94.7192C14.1563 95.1498 10.939 94.2887 8.36509 92.5666Z" fill="white"/>
<path d="M46.7586 92.3485C43.9703 90.6264 42.0399 88.2585 40.5385 85.0296C39.037 82.0159 38.3936 78.5717 38.3936 74.697C38.3936 70.8223 39.037 67.5934 40.5385 64.3644C42.0399 61.3508 44.1848 58.7676 46.7586 57.0455C49.547 55.3234 52.5499 54.4624 56.1962 54.4624C59.8425 54.4624 62.8454 55.3234 65.6337 57.0455C68.4221 58.7676 70.3525 61.3508 71.8539 64.3644C73.3554 67.3781 73.9988 70.8223 73.9988 74.697C73.9988 78.5717 73.3554 81.8007 71.8539 85.0296C70.3525 88.0433 68.2076 90.6264 65.6337 92.3485C63.0599 94.0706 59.8425 94.9317 56.1962 94.9317C52.5499 95.1469 49.3325 94.0706 46.7586 92.3485ZM62.6309 90.6264C64.3468 89.1196 65.8482 87.1822 66.7062 84.3838C67.5641 81.8007 68.2076 78.5718 68.2076 74.9123C68.2076 71.2528 67.7786 68.0239 66.7062 65.4408C65.8482 62.8576 64.3468 60.705 62.6309 59.1982C60.915 57.6913 58.5556 57.0455 56.1962 57.0455C53.6223 57.0455 51.4774 57.6913 49.7615 59.1982C47.8311 60.705 46.5442 62.6423 45.6862 65.4408C44.8282 68.0239 44.1848 71.2528 44.1848 74.9123C44.1848 78.5718 44.6138 81.8007 45.6862 84.3838C46.5442 86.967 48.0456 89.1196 49.7615 90.6264C51.4774 92.1332 53.8368 92.779 56.1962 92.779C58.5556 92.779 60.7005 91.918 62.6309 90.6264Z" fill="white"/>
<path d="M74.4276 93.8547V92.3479C76.358 92.3479 78.0739 91.4868 79.3609 89.7647C80.6478 88.2579 81.9347 85.2442 82.5782 80.939C83.4362 76.6337 83.8651 70.3912 83.8651 62.4265C83.8651 60.4891 83.6507 58.9823 83.0072 58.1212C82.3637 57.2602 81.2913 56.6144 79.7898 56.6144H79.1464V55.5381H107.673V93.6394H102.526V57.9059H88.1549V62.4265C88.1549 70.8217 87.726 77.2795 86.6535 82.0153C85.5811 86.751 84.2941 89.98 82.7927 91.7021C81.2913 93.4242 79.3609 94.2852 77.216 94.2852C76.358 94.5005 75.5001 94.2852 74.4276 93.8547Z" fill="white"/>
<path d="M118.827 62.6417C118.827 60.7043 118.613 59.1975 117.969 58.3365C117.326 57.4754 116.253 56.8296 114.752 56.8296H113.68V55.7533H118.827C120.329 55.7533 121.401 55.9686 122.045 56.3991C122.688 56.8296 123.332 57.4754 123.546 58.3365C123.761 59.1975 123.975 60.7043 123.975 62.6417V72.9743H141.349V55.5381H146.496V86.7511C146.496 88.6884 146.711 90.1953 147.354 91.0563C147.783 91.9174 149.07 92.5631 150.572 92.5631H151.644V93.6394H146.496C144.995 93.6394 143.923 93.4242 143.279 92.9936C142.636 92.5631 141.992 91.9174 141.778 91.0563C141.563 90.1953 141.349 88.6884 141.349 86.7511V75.1269H123.975V93.6394H118.827V62.6417Z" fill="white"/>
<path d="M186.606 96.2233C185.533 94.7164 183.817 93.8554 181.672 93.8554H158.722V62.6424C158.722 60.705 158.507 59.1982 157.864 58.3372C157.221 57.4761 156.148 56.8303 154.647 56.8303H153.574V55.754H158.722C160.223 55.754 161.296 55.9693 161.939 56.3998C162.583 56.8303 163.226 57.4761 163.441 58.3372C163.655 59.1982 163.87 60.705 163.87 62.6424V91.4875H181.243V55.754H186.391V91.4875H189.608C190.252 91.4875 190.681 91.7028 191.11 92.1333C191.539 92.5638 191.753 92.9943 191.753 93.6401V104.403H189.179C188.536 100.529 187.678 97.7301 186.606 96.2233Z" fill="white"/>
<path d="M198.832 62.6424C198.832 60.705 198.618 59.1982 197.974 58.3372C197.331 57.4761 196.258 56.8303 194.757 56.8303H193.685V55.754H218.136C221.354 55.754 223.07 57.2609 223.07 60.2745V64.5798H221.997C221.997 60.0593 219.638 57.9066 214.705 57.9066H203.98V72.975H219.423V75.3429H203.98V91.4875H214.061C216.635 91.4875 218.78 91.057 220.281 89.9807C221.783 89.1197 223.07 87.3976 223.928 85.0297L225 85.2449L223.07 90.6265C222.426 92.5638 220.925 93.4249 218.78 93.4249H198.832V62.6424Z" fill="white"/>
<path d="M5.79081 8.82657C5.79081 6.67396 5.57632 5.16715 4.93285 4.3061C4.28938 3.22979 3.21693 2.79927 1.50102 2.79927H0.214081V1.50769H25.5238C28.9557 1.50769 30.6716 3.22979 30.6716 6.45872V10.9792H29.5991C29.5991 6.24343 27.0253 3.87558 21.8775 3.87558H11.153V41.7616H5.57632V8.82657H5.79081Z" fill="white"/>
<path d="M40.3236 40.254C37.5353 38.3166 35.1759 35.7335 33.6744 32.5045C32.173 29.2756 31.3151 25.6162 31.3151 21.5262C31.3151 17.4362 32.173 13.992 33.6744 10.5478C35.1759 7.31889 37.3208 4.73577 40.3236 2.79841C43.112 0.861055 46.5438 0 50.4046 0C54.2654 0 57.4828 0.861055 60.4856 2.79841C63.274 4.73577 65.6334 7.31889 67.1348 10.5478C68.6362 13.7768 69.4942 17.4362 69.4942 21.5262C69.4942 25.6162 68.6362 29.0603 67.1348 32.5045C65.6334 35.7335 63.4885 38.3166 60.4856 40.254C57.6973 42.1913 54.2654 43.0524 50.4046 43.0524C46.5438 43.0524 43.3265 41.9761 40.3236 40.254ZM57.2683 38.3166C59.1987 36.8098 60.7001 34.6572 61.7726 31.6435C62.845 28.8451 63.274 25.4009 63.274 21.5262C63.274 17.6515 62.845 14.2073 61.7726 11.4089C60.7001 8.61049 59.1987 6.45785 57.2683 4.73576C55.3379 3.22892 52.9785 2.36786 50.4046 2.36786C47.8308 2.36786 45.4714 3.22892 43.541 4.73576C41.6106 6.24259 40.1091 8.39522 39.0367 11.4089C37.9642 14.2073 37.5353 17.6515 37.5353 21.5262C37.5353 25.4009 37.9642 28.8451 39.0367 31.6435C40.1091 34.4419 41.6106 36.5945 43.541 38.3166C45.4714 39.8235 47.8308 40.6845 50.4046 40.6845C52.9785 40.4692 55.3379 39.8235 57.2683 38.3166Z" fill="white"/>
<path d="M78.074 8.82658C78.074 6.67396 77.8596 5.16715 77.2161 4.3061C76.5726 3.22979 75.5002 2.79928 73.7842 2.79928H72.4973V1.50769H88.3695C92.2304 1.50769 95.8767 2.36873 98.8795 4.09083C102.097 5.81292 103.598 9.04185 103.598 13.7776C103.598 17.0065 102.74 19.3744 101.239 21.0965C99.523 22.8186 97.8071 23.8949 95.8767 24.5407C93.9463 25.1865 92.0159 25.4018 90.2999 25.4018H83.6508V41.9769H78.074V8.82658ZM92.4448 22.1728C93.9463 21.5271 95.2332 20.4508 96.0912 18.9439C97.1636 17.4371 97.5926 15.715 97.5926 13.3471C97.5926 11.1945 97.1636 9.25711 96.0912 7.75027C95.0187 6.24344 93.7318 5.16713 92.4448 4.52134C90.9434 3.87556 89.6565 3.44503 88.3695 3.44503C86.8681 3.44503 85.3667 3.6603 83.8653 4.09083V22.3881C85.5812 22.8186 87.0826 23.0339 88.3695 23.0339C89.442 23.0339 90.9434 22.8186 92.4448 22.1728Z" fill="white"/>
<path d="M111.749 8.82657C111.749 6.67396 111.534 5.16715 110.891 4.3061C110.247 3.22979 109.175 2.79927 107.459 2.79927H106.172V1.50769H111.749C113.25 1.50769 114.322 1.72296 115.18 2.15348C116.038 2.58401 116.467 3.22979 116.896 4.3061C117.325 5.38241 117.325 6.88923 117.325 9.04185V20.0202H135.557V1.72297H141.134V34.8732C141.134 37.0259 141.348 38.5327 141.992 39.3938C142.635 40.4701 143.708 40.9006 145.423 40.9006H146.71V42.1921H141.134C139.632 42.1921 138.56 41.9769 137.702 41.5464C136.844 41.1159 136.415 40.4701 135.986 39.3938C135.557 38.3175 135.557 36.8106 135.557 34.658V22.3881H117.325V41.9769H111.749V8.82657Z" fill="white"/>
<path d="M158.936 40.254C156.147 38.3166 153.788 35.7335 152.287 32.5045C150.785 29.2756 149.927 25.6162 149.927 21.5262C149.927 17.4362 150.785 13.992 152.287 10.5478C153.788 7.31889 155.933 4.73577 158.936 2.79841C161.724 0.861055 165.156 0 169.017 0C172.878 0 176.095 0.861055 179.098 2.79841C181.886 4.73577 184.246 7.31889 185.747 10.5478C187.248 13.7768 188.106 17.4362 188.106 21.5262C188.106 25.6162 187.248 29.0603 185.747 32.5045C184.246 35.7335 182.101 38.3166 179.098 40.254C176.309 42.1913 172.878 43.0524 169.017 43.0524C165.156 43.0524 161.939 41.9761 158.936 40.254ZM175.88 38.3166C177.811 36.8098 179.312 34.6572 180.385 31.6435C181.457 28.8451 181.886 25.4009 181.886 21.5262C181.886 17.6515 181.457 14.2073 180.385 11.4089C179.312 8.61049 177.811 6.45785 175.88 4.73576C173.95 3.22892 171.591 2.36786 169.017 2.36786C166.443 2.36786 164.084 3.22892 162.153 4.73576C160.223 6.24259 158.721 8.39522 157.649 11.4089C156.576 14.2073 156.147 17.6515 156.147 21.5262C156.147 25.4009 156.576 28.8451 157.649 31.6435C158.721 34.4419 160.223 36.5945 162.153 38.3166C164.084 39.8235 166.443 40.6845 169.017 40.6845C171.591 40.4692 173.95 39.8235 175.88 38.3166Z" fill="white"/>
<path d="M196.687 8.82657C196.687 6.67396 196.472 5.16715 195.829 4.3061C195.185 3.22979 194.113 2.79927 192.397 2.79927H191.11V1.50769H217.063C220.495 1.50769 222.211 3.22979 222.211 6.45872V10.9792H220.924C220.924 6.24343 218.35 3.87558 213.202 3.87558H201.834V19.8049H218.35V22.1728H201.834V39.3938H212.559C215.347 39.3938 217.492 38.9632 219.208 37.8869C220.709 36.8106 221.996 35.0885 223.069 32.7206L224.356 32.9359L222.211 38.748C221.567 40.6853 219.851 41.7616 217.707 41.7616H196.687V8.82657Z" fill="white"/>
<path d="M23.5934 124.762V124.332C24.2369 124.332 24.6658 124.116 25.0948 123.686C25.5238 123.471 25.9528 122.825 26.3817 122.394L28.9556 118.735L26.5962 114.86C26.3817 114.43 25.9528 114.214 25.7383 113.999C25.3093 113.784 24.8803 113.784 24.4513 113.784V113.138H25.0948C26.5962 113.138 27.6687 113.568 28.3122 114.645L30.886 118.95V113.138H33.0309V118.95L35.6048 114.645C36.2483 113.568 37.3207 113.138 38.8221 113.138H39.4656V113.784C39.0366 113.784 38.6076 113.784 38.1787 113.999C37.7497 114.214 37.5352 114.43 37.3207 114.86L34.9613 118.735L37.5352 122.394C37.9642 123.04 38.3932 123.471 38.8221 123.686C39.2511 123.901 39.6801 124.116 40.3236 124.332V124.762C39.8946 124.977 39.4656 124.977 39.0366 124.977C37.7497 124.977 36.6772 124.332 35.8193 123.04L33.2454 119.381V124.762H31.1005V119.381L28.5266 123.04C27.6687 124.332 26.5962 124.977 25.3093 124.977C24.4513 124.977 24.0224 124.977 23.5934 124.762Z" fill="white"/>
<path d="M42.2543 116.152C42.2543 115.291 42.0398 114.645 41.8253 114.214C41.6108 113.784 41.1818 113.568 40.5383 113.568H40.3239V113.138H42.4687C43.1122 113.138 43.5412 113.138 43.7557 113.353C43.9702 113.568 44.1847 113.784 44.3992 114.214C44.6136 114.645 44.6136 115.291 44.6136 116.152V122.609L49.7614 113.353H51.9063V124.977H49.7614V115.721L44.6136 124.977H42.4687V116.152H42.2543Z" fill="white"/>
<path d="M54.4795 124.977C54.265 124.977 54.0505 124.977 53.836 124.762V124.116C54.694 124.116 55.5519 123.471 56.1954 122.394C56.8389 121.318 57.0533 119.165 57.0533 116.152C57.0533 115.291 56.8388 114.645 56.6244 114.214C56.4099 113.784 55.9809 113.568 55.3374 113.568V113.138H65.2039V124.762H63.059V114.214H58.7693V116.152C58.7693 119.596 58.3403 121.748 57.6968 123.04C57.0533 124.332 56.1954 124.977 55.1229 124.977C54.9085 124.977 54.694 124.977 54.4795 124.977Z" fill="white"/>
<path d="M70.5668 124.332C69.7088 123.901 69.0654 123.04 68.6364 122.179C68.2074 121.318 67.9929 120.242 67.9929 119.165C67.9929 118.089 68.2074 117.013 68.6364 116.152C69.0654 115.291 69.7088 114.429 70.5668 113.999C71.4247 113.568 72.2827 113.138 73.3552 113.138C74.4276 113.138 75.5001 113.353 76.1435 113.999C77.0015 114.429 77.6449 115.291 78.0739 116.152C78.5029 117.013 78.7174 118.089 78.7174 119.165C78.7174 120.242 78.5029 121.318 78.0739 122.179C77.6449 123.04 77.0015 123.901 76.1435 124.332C75.2856 124.762 74.4276 125.193 73.3552 125.193C72.4972 124.977 71.4247 124.762 70.5668 124.332ZM75.0711 123.471C75.5001 123.04 75.929 122.394 76.1435 121.748C76.358 120.887 76.5725 120.026 76.5725 119.165C76.5725 118.304 76.358 117.443 76.1435 116.582C75.929 115.721 75.5001 115.291 75.0711 114.86C74.6421 114.43 73.9986 114.214 73.5696 114.214C72.9262 114.214 72.4972 114.43 72.0682 114.86C71.6392 115.291 71.2103 115.936 70.9958 116.582C70.7813 117.228 70.5668 118.304 70.5668 119.165C70.5668 120.026 70.7813 120.887 70.9958 121.748C71.2103 122.609 71.6392 123.04 72.0682 123.471C72.4972 123.901 73.1407 124.116 73.5696 124.116C74.2131 124.116 74.6421 123.901 75.0711 123.471Z" fill="white"/>
<path d="M82.1494 116.151C82.1494 115.29 81.9349 114.645 81.7204 114.214C81.5059 113.784 81.0769 113.568 80.4335 113.568H80.0045V113.138H82.1494C82.7928 113.138 83.2218 113.138 83.4363 113.353C83.6508 113.568 83.8653 113.784 84.0798 114.214C84.2943 114.645 84.2943 115.29 84.2943 116.151V122.609L89.442 113.353H91.5869V124.977H89.442V115.721L84.2943 124.977H82.1494V116.151ZM83.8653 109.909L84.2943 109.478C84.7233 109.909 84.9377 110.124 85.3667 110.124C85.7957 110.339 86.2247 110.339 86.8682 110.339C87.5116 110.339 88.1551 110.339 88.3696 110.124C88.7986 109.909 89.2275 109.694 89.442 109.478L89.871 109.909C89.2275 111.2 88.1551 111.846 86.6537 111.846C85.5812 112.061 84.5088 111.2 83.8653 109.909Z" fill="white"/>
<path d="M106.815 123.04L104.027 119.381V124.762H101.882V116.152C101.882 115.291 101.668 114.645 101.453 114.214C101.239 113.784 100.81 113.568 100.166 113.568H99.7372V113.138H101.882C102.526 113.138 102.955 113.138 103.169 113.353C103.384 113.568 103.598 113.784 103.812 114.214C104.027 114.645 104.027 115.291 104.027 116.152V119.165L107.03 114.86C107.459 114.43 107.888 113.999 108.317 113.568C108.746 113.353 109.389 113.138 110.247 113.138H110.891V113.784C110.033 113.784 109.175 114.214 108.746 114.86L105.957 118.735L108.746 122.394C109.175 123.04 109.604 123.471 110.033 123.686C110.462 124.116 110.891 124.116 111.534 124.332V124.762C111.105 124.977 110.676 124.977 110.247 124.977C108.96 124.977 107.888 124.332 106.815 123.04Z" fill="white"/>
<path d="M114.537 124.332C113.679 123.901 113.035 123.04 112.606 122.179C112.177 121.318 111.963 120.242 111.963 119.165C111.963 118.089 112.177 117.013 112.606 116.152C113.035 115.291 113.679 114.429 114.537 113.999C115.395 113.568 116.253 113.138 117.325 113.138C118.397 113.138 119.47 113.353 120.113 113.999C120.971 114.429 121.615 115.291 122.044 116.152C122.473 117.013 122.687 118.089 122.687 119.165C122.687 120.242 122.473 121.318 122.044 122.179C121.615 123.04 120.971 123.901 120.113 124.332C119.255 124.762 118.397 125.193 117.325 125.193C116.253 124.977 115.395 124.762 114.537 124.332ZM119.041 123.471C119.47 123.04 119.899 122.394 120.113 121.748C120.328 120.887 120.542 120.026 120.542 119.165C120.542 118.304 120.328 117.443 120.113 116.582C119.899 115.721 119.47 115.291 119.041 114.86C118.612 114.43 117.968 114.214 117.54 114.214C116.896 114.214 116.467 114.43 116.038 114.86C115.609 115.291 115.18 115.936 114.966 116.582C114.751 117.443 114.537 118.304 114.537 119.165C114.537 120.026 114.751 120.887 114.966 121.748C115.18 122.609 115.609 123.04 116.038 123.471C116.467 123.901 117.111 124.116 117.54 124.116C117.968 124.116 118.612 123.901 119.041 123.471Z" fill="white"/>
<path d="M136.201 124.116C135.557 123.47 135.343 122.394 135.343 121.103V115.721L131.267 124.762H130.838L126.763 115.506V124.762H125.691V113.138H128.05L131.696 121.318L135.343 113.138H137.488V121.103C137.488 121.964 137.702 122.825 137.916 123.686C138.345 124.332 138.774 124.762 139.203 124.762V125.193C137.916 125.193 136.844 124.977 136.201 124.116Z" fill="white"/>
<path d="M141.778 116.152C141.778 115.291 141.563 114.645 141.349 114.214C141.134 113.784 140.705 113.568 140.062 113.568H139.847V113.138H151.215V124.762H149.071V114.214H144.137V124.762H141.992V116.152H141.778Z" fill="white"/>
<path d="M153.789 124.977C153.574 124.977 153.36 124.977 153.145 124.762V124.116C154.003 124.116 154.861 123.471 155.504 122.394C156.148 121.318 156.362 119.165 156.362 116.152C156.362 115.291 156.148 114.645 155.933 114.214C155.719 113.784 155.29 113.568 154.646 113.568V113.138H164.513V124.762H162.368V114.214H158.078V116.152C158.078 119.596 157.649 121.748 157.006 123.04C156.362 124.332 155.504 124.977 154.432 124.977C154.217 124.977 154.003 124.977 153.789 124.977Z" fill="white"/>
<path d="M169.661 124.332C168.803 123.901 168.374 123.04 167.945 122.179C167.516 121.318 167.302 120.242 167.302 119.165C167.302 118.089 167.516 117.013 167.945 116.152C168.374 115.291 168.803 114.429 169.661 113.999C170.305 113.568 171.377 113.138 172.235 113.138C173.951 113.138 175.024 113.568 175.882 114.429C176.74 115.291 177.169 116.797 177.169 118.519V119.596H169.661C169.661 120.887 169.876 122.179 170.519 123.04C171.163 123.901 172.021 124.332 172.879 124.332C173.737 124.332 174.38 124.116 174.809 123.901C175.238 123.47 175.882 123.04 176.311 122.394L176.74 122.825C176.096 123.686 175.667 124.332 174.809 124.762C174.166 125.193 173.308 125.408 172.235 125.408C171.377 124.977 170.519 124.762 169.661 124.332ZM174.809 118.304C174.809 116.797 174.595 115.721 174.166 115.075C173.737 114.214 173.093 113.999 172.235 113.999C171.806 113.999 171.377 114.214 170.948 114.645C170.519 115.075 170.305 115.506 170.09 116.152C169.876 116.797 169.661 117.658 169.661 118.519H174.809V118.304Z" fill="white"/>
<path d="M185.533 123.04L182.745 119.381V124.762H180.6V116.152C180.6 115.291 180.386 114.645 180.171 114.214C179.957 113.784 179.528 113.568 178.884 113.568H178.455V113.138H180.6C181.243 113.138 181.672 113.138 181.887 113.353C182.101 113.568 182.316 113.784 182.53 114.214C182.745 114.645 182.745 115.291 182.745 116.152V119.165L185.748 114.86C186.177 114.43 186.606 113.999 187.035 113.568C187.464 113.353 188.107 113.138 188.965 113.138H189.609V113.784C188.751 113.784 187.893 114.214 187.464 114.86L184.675 118.735L187.464 122.394C187.893 123.04 188.322 123.471 188.751 123.686C189.18 124.116 189.609 124.116 190.252 124.332V124.762C189.823 124.977 189.394 124.977 188.965 124.977C187.678 124.977 186.606 124.332 185.533 123.04Z" fill="white"/>
<path d="M193.04 124.332C192.182 123.901 191.538 123.04 191.324 122.179C190.895 121.318 190.68 120.242 190.68 119.165C190.68 118.089 190.895 117.013 191.324 116.152C191.753 115.291 192.396 114.429 193.04 113.999C193.898 113.568 194.756 113.138 196.042 113.138C197.758 113.138 199.045 113.353 199.689 113.999C199.903 114.214 200.118 114.645 200.118 115.075C200.118 115.506 200.118 116.152 200.118 117.228H199.689C199.689 116.152 199.26 115.506 198.831 114.86C198.187 114.43 197.544 113.999 196.686 113.999C195.613 113.999 194.541 114.429 194.112 115.506C193.469 116.367 193.254 117.658 193.254 119.165C193.254 120.672 193.469 121.964 194.112 122.825C194.756 123.686 195.613 124.332 196.686 124.332C197.544 124.332 198.187 124.116 198.831 123.901C199.474 123.686 199.903 123.04 200.332 122.394L200.761 122.825C200.118 123.686 199.689 124.332 198.831 124.762C198.187 125.193 197.115 125.408 196.257 125.408C194.97 124.977 193.898 124.762 193.04 124.332Z" fill="white"/>
</svg>
