<svg width="153" height="28" viewBox="0 0 153 28" fill="none" xmlns="http://www.w3.org/2000/svg">
<path d="M0 0H22.2168V2.27109H12.4512V28H9.78089V2.27109H0V0Z" fill="white"/>
<path d="M33.6455 0H52.9937V2.27109H36.3158V12.3919H51.9408V14.663H36.3158V25.7289H53.192V28H33.6455V0Z" fill="white"/>
<path d="M66.5435 0H69.2137V25.7289H84.9151V28H66.5435V0Z" fill="white"/>
<path d="M98.8618 0H101.532V25.7289H117.233V28H98.8618V0Z" fill="white"/>
<path d="M139.023 0H141.999L152.985 28H150.116L146.698 19.2967H133.942L130.57 28H127.716L139.023 0ZM134.781 17.0256H145.813L140.396 2.66739L134.781 17.0256Z" fill="white"/>
</svg>
