<svg width="493" height="90" viewBox="0 0 493 90" fill="none" xmlns="http://www.w3.org/2000/svg">
<path d="M0 0H71.5875V7.29994H40.1205V90H31.5162V7.29994H0V0Z" fill="white"/>
<path d="M108.414 0H170.758V7.29994H117.018V39.8312H167.366V47.1312H117.018V82.7H171.397V90H108.414V0Z" fill="white"/>
<path d="M214.418 0H223.023V82.7H273.616V90H214.418V0Z" fill="white"/>
<path d="M318.555 0H327.159V82.7H377.752V90H318.555V0Z" fill="white"/>
<path d="M447.962 0H457.55L492.951 90H483.707L472.694 62.025H431.59L420.724 90H411.53L447.962 0ZM434.294 54.7251H469.842L452.388 8.57376L434.294 54.7251Z" fill="white"/>
</svg>
