<svg width="377" height="94" viewBox="0 0 377 94" fill="none" xmlns="http://www.w3.org/2000/svg">
<path fill-rule="evenodd" clip-rule="evenodd" d="M259.359 30.4176H280.839V17.348H246.084V61.3041H280.868L280.809 48.2931L259.33 48.2638L259.388 44.6887H280.839L280.809 33.9927H259.33L259.359 30.4176Z" fill="white"/>
<path fill-rule="evenodd" clip-rule="evenodd" d="M144.78 61.3041C150.641 61.3041 156.472 61.3041 162.333 61.3041C167.901 61.3041 173.293 61.2455 176.868 58.4616C179.74 56.2052 182.758 51.3993 181.381 45.8022C180.121 40.7033 177.132 39.033 172.619 37.2454C176.341 35.37 178.392 32.2638 178.275 27.9854C178.157 23.7363 175.08 20.6594 172.297 19.2235C168.311 17.1722 164.502 17.348 159.432 17.348C154.568 17.348 149.674 17.348 144.78 17.348C144.78 32 144.78 46.652 144.78 61.3041ZM157.088 50.6374H165.469C167.608 50.6374 169.337 48.9085 169.337 46.7693C169.337 44.6301 167.608 42.9011 165.469 42.9011H157.088V50.6374ZM157.088 34.8718H162.743C164.619 34.8718 166.143 33.3187 166.143 31.4432C166.143 29.5678 164.619 28.044 162.743 28.044H157.088V34.8718Z" fill="#FEFEFE"/>
<path fill-rule="evenodd" clip-rule="evenodd" d="M310.875 50.3444L318.963 61.3041H334.67L318.875 39.3261L334.641 17.348H318.963L310.875 28.3077L302.787 17.348H287.139L303.227 39.3261L287.11 61.3041H302.817L310.875 50.3444Z" fill="white"/>
<path fill-rule="evenodd" clip-rule="evenodd" d="M212.385 61.3041L237.41 61.3334L238.289 61.2455L238.231 48.0587H225.601V17.348H212.385L212.355 18.3444L212.385 61.3041Z" fill="#FEFEFE"/>
<path fill-rule="evenodd" clip-rule="evenodd" d="M188.56 61.3041H201.835L201.806 17.4359H188.56V61.3041Z" fill="#FEFEFE"/>
<path d="M116.707 22.9744L109.82 33.2308C108.941 34.5495 108.238 35.6923 107.798 36.8059C107.476 37.6557 107.3 38.6227 107.3 39.9121C107.3 42.5202 108.355 44.8645 110.055 46.5641C111.754 48.2638 114.099 49.3187 116.707 49.3187C119.315 49.3187 121.659 48.2638 123.359 46.5641C125.059 44.8645 126.113 42.5202 126.113 39.9121C126.113 38.6227 125.938 37.6557 125.586 36.8059C125.176 35.6923 124.472 34.5495 123.564 33.2308L116.707 22.9744ZM116.707 62.1832C110.553 62.1832 104.985 59.6923 100.971 55.6484C96.9266 51.6337 94.4358 46.066 94.4358 39.9121C94.4358 36.9231 94.934 34.4909 95.8717 32.1172C96.6922 30.0073 97.8058 28.1612 99.183 26.1099L111.374 7.94139L116.707 0L122.011 7.94139L134.201 26.1099C135.579 28.1612 136.692 30.0073 137.542 32.1172C138.45 34.4909 138.949 36.9231 138.949 39.9121C138.949 46.066 136.458 51.6337 132.443 55.6484C128.399 59.6923 122.861 62.1832 116.707 62.1832Z" fill="#FEFEFE"/>
<path fill-rule="evenodd" clip-rule="evenodd" d="M65.3662 59.7217L75.7691 43.4579V61.3041H88.9559L88.9266 17.348H78.4651L65.3662 37.7729L52.2966 17.348H41.835L41.7764 61.3041H54.9632L54.9926 43.4579L65.3662 59.7217Z" fill="#FEFEFE"/>
<path d="M198.084 84.1612C198.113 90.3151 202.743 93.392 207.344 93.392C210.656 93.392 214.084 91.9268 215.374 88.1759C215.989 86.4176 215.989 84.6887 215.901 82.9011H207.374V86.8865H211.212C210.392 88.6154 209.19 89.1136 207.344 89.1136C204.619 89.1136 202.861 87.1502 202.861 84.1612C202.861 81.4066 204.443 79.1502 207.344 79.1502C209.161 79.1502 210.363 79.7656 211.095 81.2894H215.637C214.758 76.8352 210.978 74.9304 207.344 74.9011C202.743 74.9011 198.113 78.0074 198.084 84.1612ZM231.227 86.7986C235.798 83.6924 234.509 75.1649 227.417 75.1356C224.809 75.1356 222.113 75.1356 219.535 75.1356C219.535 81.1722 219.535 87.1795 219.535 93.1869C221.029 93.1869 222.582 93.1869 224.135 93.1869V87.8828H226.538L229.615 93.1869H234.773V92.5129L231.227 86.7986ZM227.417 83.7803H224.135C224.135 82.3444 224.135 80.7326 224.135 79.2674C225.22 79.2674 226.333 79.2381 227.417 79.2674C230.055 79.2967 229.938 83.7803 227.417 83.7803ZM254.934 84.1905C254.934 71.707 236.443 71.707 236.443 84.1905C236.443 96.674 254.934 96.674 254.934 84.1905ZM241.19 84.1905C241.19 77.685 250.216 77.685 250.216 84.1905C250.216 90.7253 241.19 90.7253 241.19 84.1905ZM265.396 89.2894C264.048 89.2894 262.641 88.5568 262.641 87.0916V75.1356C261.205 75.1356 259.681 75.1356 258.245 75.1356V87.1795C258.245 91.1356 261.703 93.4213 265.396 93.4213C269.088 93.4213 272.516 91.1356 272.516 87.1795V75.1356C271.081 75.1356 269.586 75.1356 268.121 75.1356V87.0916C268.121 88.5568 266.744 89.2894 265.396 89.2894ZM281.63 93.1869V88.5568H284.941C293.557 88.5568 293.557 75.1649 284.941 75.1356C282.275 75.1356 279.608 75.1356 277 75.1356C277 81.1722 277 87.1795 277 93.1869C278.524 93.1869 280.077 93.1869 281.63 93.1869ZM284.912 84.425H281.63C281.63 82.9598 281.63 80.7326 281.63 79.2674C282.685 79.2674 283.828 79.2381 284.912 79.2674C287.579 79.2967 287.432 84.425 284.912 84.425ZM97.5127 75.1356C93.2929 75.1356 90.4504 75.1356 86.2599 75.1356C86.2599 81.1136 86.2599 87.1502 86.2599 93.1869C90.4504 93.1869 93.5274 93.1869 97.7471 93.1869C97.7471 91.8096 97.7471 90.4323 97.7471 89.0843C95.0512 89.0843 93.498 89.0843 90.8607 89.0843C90.8607 88 90.8607 86.9744 90.8607 85.9195H96.9852C96.9852 84.5422 96.9852 83.1942 96.9852 81.8169H90.8607V79.2674C93.498 79.2674 94.846 79.2674 97.5127 79.2674C97.5127 77.8902 97.5127 76.4836 97.5127 75.1356ZM115.564 93.1869H117.234V75.1356C115.652 75.1356 114.069 75.1356 112.516 75.1356V83.9561L103.403 75.077H101.732V93.1869C103.286 93.1869 104.897 93.1869 106.48 93.1869V84.3077L115.564 93.1869ZM133.058 75.1356C128.839 75.1356 125.967 75.1356 121.806 75.1356C121.806 81.1136 121.806 87.1502 121.806 93.1869C125.967 93.1869 129.073 93.1869 133.293 93.1869C133.293 91.8096 133.293 90.4323 133.293 89.0843C130.597 89.0843 129.044 89.0843 126.406 89.0843C126.406 88 126.406 86.9744 126.406 85.9195H132.531C132.531 84.5422 132.531 83.1942 132.531 81.8169H126.406V79.2674C129.044 79.2674 130.392 79.2674 133.058 79.2674C133.058 77.8902 133.058 76.4836 133.058 75.1356ZM148.941 86.7986C153.513 83.6924 152.223 75.1649 145.132 75.1356C142.524 75.1356 139.828 75.1356 137.249 75.1356C137.249 81.1722 137.249 87.1795 137.249 93.1869C138.743 93.1869 140.297 93.1869 141.85 93.1869V87.8828H144.253L147.33 93.1869H152.487V92.5129L148.941 86.7986ZM145.132 83.7803H141.85C141.85 82.3444 141.85 80.7326 141.85 79.2674C142.934 79.2674 144.048 79.2381 145.132 79.2674C147.769 79.2967 147.652 83.7803 145.132 83.7803ZM154.157 84.1612C154.187 90.3151 158.817 93.392 163.417 93.392C166.729 93.392 170.157 91.9268 171.447 88.1759C172.062 86.4176 172.062 84.6887 171.945 82.9011H163.417V86.8865H167.256C166.436 88.6154 165.264 89.1136 163.417 89.1136C160.663 89.1136 158.934 87.1502 158.934 84.1612C158.934 81.4066 160.487 79.1502 163.417 79.1502C165.234 79.1502 166.406 79.7656 167.168 81.2894H171.711C170.831 76.8352 167.022 74.9304 163.417 74.9011C158.817 74.9011 154.187 78.0074 154.157 84.1612ZM183.549 85.5971L189.615 75.8389V75.1356H184.634L181.352 81.1429H181.176L177.894 75.1356H172.941V75.8389L178.978 85.5971V93.1869H183.549V85.5971Z" fill="#FEFEFE"/>
<path d="M16.1354 61.3041L0.0181656 39.3261L16.1354 17.348H31.9596L15.813 39.3261L31.9596 61.3041H16.1354Z" fill="white"/>
<path d="M360.018 61.3041L376.165 39.3261L360.018 17.348H344.223L360.341 39.3261L344.223 61.3041H360.018Z" fill="#FEFEFE"/>
</svg>
