<svg width="28" height="28" viewBox="0 0 28 28" fill="none" xmlns="http://www.w3.org/2000/svg">
<path d="M18.1726 7.44922H9.82736C8.49533 7.44922 7.41162 8.53293 7.41162 9.86496V18.2102C7.41162 19.5423 8.49533 20.6263 9.82736 20.6263H18.1726C19.5047 20.6263 20.5887 19.5426 20.5887 18.2102V9.86496C20.5887 8.53293 19.505 7.44922 18.1726 7.44922ZM14 18.3756C11.6083 18.3756 9.66234 16.4296 9.66234 14.0376C9.66234 11.6459 11.6083 9.69994 14 9.69994C16.392 9.69994 18.338 11.6459 18.338 14.0376C18.338 16.4293 16.3917 18.3756 14 18.3756ZM18.4774 10.5968C17.9112 10.5968 17.4508 10.1364 17.4508 9.57048C17.4508 9.0046 17.9112 8.54416 18.4774 8.54416C19.0433 8.54416 19.5037 9.0046 19.5037 9.57048C19.5037 10.1364 19.0433 10.5968 18.4774 10.5968Z" fill="white"/>
<path d="M14 11.5332C12.6193 11.5332 11.495 12.6568 11.495 14.0375C11.495 15.4189 12.6193 16.5428 14 16.5428C15.3813 16.5428 16.5046 15.4189 16.5046 14.0375C16.5046 12.6572 15.381 11.5332 14 11.5332Z" fill="white"/>
<path d="M14 0C6.26832 0 0 6.26832 0 14C0 21.7317 6.26832 28 14 28C21.7317 28 28 21.7317 28 14C28 6.26832 21.7317 0 14 0ZM22.4214 18.2104C22.4214 20.5534 20.5157 22.4591 18.1726 22.4591H9.82736C7.48461 22.4591 5.5786 20.5534 5.5786 18.2104V9.8651C5.5786 7.52236 7.48461 5.61635 9.82736 5.61635H18.1726C20.5157 5.61635 22.4214 7.52236 22.4214 9.8651V18.2104Z" fill="white"/>
</svg>
